<svg width="328" height="70" viewBox="0 0 328 70" fill="none" xmlns="http://www.w3.org/2000/svg">
<g clip-path="url(#clip0_13_1839)">
<path d="M56.786 26.2612C55.9943 23.8096 56.3318 20.1296 54.274 17.2881C52.2 14.4243 48.5929 13.6103 46.556 12.1206C44.5406 10.6466 42.6656 7.43909 39.2755 6.33284C35.981 5.25776 32.6121 6.71663 30 6.71663C27.3882 6.71663 24.0196 5.25741 20.7245 6.33272C17.335 7.43874 15.4584 10.647 13.4443 12.1203C11.4097 13.6082 7.79988 14.4244 5.72625 17.2878C3.6702 20.1269 4.0043 23.8153 3.21398 26.261C2.46187 28.5887 0 31.3824 0 35.0002C0 38.6202 2.45906 41.4031 3.21398 43.7392C4.0057 46.1908 3.6682 49.8708 5.72602 52.7122C7.79988 55.5762 11.4069 56.3901 13.444 57.8799C15.459 59.3536 17.3344 62.5614 20.7245 63.6675C24.0168 64.7419 27.3909 63.2837 30 63.2837C32.6054 63.2837 35.9875 64.7404 39.2755 63.6676C42.6652 62.5616 44.5405 59.3541 46.5557 57.8801C48.5903 56.3922 52.2001 55.576 54.2738 52.7126C56.3299 49.8734 55.9956 46.1853 56.786 43.7393C57.5381 41.4115 60 38.6179 60 35.0002C60 31.3804 57.5415 28.5983 56.786 26.2612ZM52.3257 42.2979C51.4029 45.1544 51.6446 48.3511 50.4775 49.9629C49.2946 51.5962 46.1869 52.3422 43.7889 54.0962C41.4171 55.8307 39.7548 58.5803 37.8214 59.2111C35.9924 59.8081 33.0116 58.596 30.0001 58.596C26.9666 58.596 24.0165 59.8106 22.1787 59.2111C20.2455 58.5803 18.5856 55.8326 16.2113 54.0961C13.8274 52.3527 10.702 51.5914 9.52254 49.9627C8.3591 48.3563 8.59172 45.1374 7.67449 42.298C6.77543 39.5161 4.6875 37.1073 4.6875 35.0002C4.6875 32.8909 6.77355 30.4905 7.67426 27.7024C8.59711 24.8461 8.35535 21.6491 9.52254 20.0374C10.7047 18.4053 13.8148 17.6568 16.2113 15.9041C18.5905 14.164 20.2424 11.421 22.1784 10.7892C24.006 10.193 26.9965 11.4044 29.9999 11.4044C33.0389 11.4044 35.9816 10.1889 37.8213 10.7892C39.7542 11.4199 41.4156 14.1687 43.7889 15.9042C46.1723 17.6476 49.298 18.409 50.4775 20.0376C51.6411 21.6443 51.4072 24.8599 52.3255 27.7022V27.7023C53.2246 30.4842 55.3125 32.893 55.3125 35.0002C55.3125 37.1094 53.2264 39.5099 52.3257 42.2979ZM40.798 27.4773C41.7134 28.3927 41.7134 29.8766 40.798 30.7919L29.0668 42.523C28.1515 43.4384 26.6674 43.4383 25.7522 42.523L19.2021 35.973C18.2868 35.0576 18.2866 33.5737 19.202 32.6584C20.1173 31.7432 21.6015 31.7431 22.5165 32.6584L27.4095 37.5512L37.4832 27.4774C38.3986 26.5621 39.8827 26.5621 40.798 27.4773Z" fill="#242424"/>
</g>
<path d="M95.05 10.55L90.175 28H86.05L82.775 15.575L79.35 28L75.25 28.025L70.55 10.55H74.3L77.375 24.1L80.925 10.55H84.825L88.175 24.025L91.275 10.55H95.05ZM96.4354 21.025C96.4354 19.625 96.7104 18.3833 97.2604 17.3C97.827 16.2167 98.5854 15.3833 99.5354 14.8C100.502 14.2167 101.577 13.925 102.76 13.925C103.794 13.925 104.694 14.1333 105.46 14.55C106.244 14.9667 106.869 15.4917 107.335 16.125V14.15H110.86V28H107.335V25.975C106.885 26.625 106.26 27.1667 105.46 27.6C104.677 28.0167 103.769 28.225 102.735 28.225C101.569 28.225 100.502 27.925 99.5354 27.325C98.5854 26.725 97.827 25.8833 97.2604 24.8C96.7104 23.7 96.4354 22.4417 96.4354 21.025ZM107.335 21.075C107.335 20.225 107.169 19.5 106.835 18.9C106.502 18.2833 106.052 17.8167 105.485 17.5C104.919 17.1667 104.31 17 103.66 17C103.01 17 102.41 17.1583 101.86 17.475C101.31 17.7917 100.86 18.2583 100.51 18.875C100.177 19.475 100.01 20.1917 100.01 21.025C100.01 21.8583 100.177 22.5917 100.51 23.225C100.86 23.8417 101.31 24.3167 101.86 24.65C102.427 24.9833 103.027 25.15 103.66 25.15C104.31 25.15 104.919 24.9917 105.485 24.675C106.052 24.3417 106.502 23.875 106.835 23.275C107.169 22.6583 107.335 21.925 107.335 21.075ZM117.779 16.3C118.229 15.5667 118.812 14.9917 119.529 14.575C120.262 14.1583 121.095 13.95 122.029 13.95V17.625H121.104C120.004 17.625 119.17 17.8833 118.604 18.4C118.054 18.9167 117.779 19.8167 117.779 21.1V28H114.279V14.15H117.779V16.3ZM127.886 16.3C128.336 15.5667 128.919 14.9917 129.636 14.575C130.369 14.1583 131.203 13.95 132.136 13.95V17.625H131.211C130.111 17.625 129.278 17.8833 128.711 18.4C128.161 18.9167 127.886 19.8167 127.886 21.1V28H124.386V14.15H127.886V16.3ZM133.594 21.025C133.594 19.625 133.869 18.3833 134.419 17.3C134.985 16.2167 135.744 15.3833 136.694 14.8C137.66 14.2167 138.735 13.925 139.919 13.925C140.952 13.925 141.852 14.1333 142.619 14.55C143.402 14.9667 144.027 15.4917 144.494 16.125V14.15H148.019V28H144.494V25.975C144.044 26.625 143.419 27.1667 142.619 27.6C141.835 28.0167 140.927 28.225 139.894 28.225C138.727 28.225 137.66 27.925 136.694 27.325C135.744 26.725 134.985 25.8833 134.419 24.8C133.869 23.7 133.594 22.4417 133.594 21.025ZM144.494 21.075C144.494 20.225 144.327 19.5 143.994 18.9C143.66 18.2833 143.21 17.8167 142.644 17.5C142.077 17.1667 141.469 17 140.819 17C140.169 17 139.569 17.1583 139.019 17.475C138.469 17.7917 138.019 18.2583 137.669 18.875C137.335 19.475 137.169 20.1917 137.169 21.025C137.169 21.8583 137.335 22.5917 137.669 23.225C138.019 23.8417 138.469 24.3167 139.019 24.65C139.585 24.9833 140.185 25.15 140.819 25.15C141.469 25.15 142.077 24.9917 142.644 24.675C143.21 24.3417 143.66 23.875 143.994 23.275C144.327 22.6583 144.494 21.925 144.494 21.075ZM159.112 13.95C160.762 13.95 162.095 14.475 163.112 15.525C164.129 16.5583 164.637 18.0083 164.637 19.875V28H161.137V20.35C161.137 19.25 160.862 18.4083 160.312 17.825C159.762 17.225 159.012 16.925 158.062 16.925C157.095 16.925 156.329 17.225 155.762 17.825C155.212 18.4083 154.937 19.25 154.937 20.35V28H151.437V14.15H154.937V15.875C155.404 15.275 155.995 14.8083 156.712 14.475C157.445 14.125 158.245 13.95 159.112 13.95ZM172.04 17.025V23.725C172.04 24.1917 172.149 24.5333 172.365 24.75C172.599 24.95 172.982 25.05 173.515 25.05H175.14V28H172.94C169.99 28 168.515 26.5667 168.515 23.7V17.025H166.865V14.15H168.515V10.725H172.04V14.15H175.14V17.025H172.04ZM190.908 14.15L182.333 34.55H178.608L181.608 27.65L176.058 14.15H179.983L183.558 23.825L187.183 14.15H190.908ZM211.476 15.95C211.476 16.8833 211.251 17.7583 210.801 18.575C210.368 19.3917 209.676 20.05 208.726 20.55C207.793 21.05 206.61 21.3 205.176 21.3H202.251V28H198.751V10.55H205.176C206.526 10.55 207.676 10.7833 208.626 11.25C209.576 11.7167 210.285 12.3583 210.751 13.175C211.235 13.9917 211.476 14.9167 211.476 15.95ZM205.026 18.475C205.993 18.475 206.71 18.2583 207.176 17.825C207.643 17.375 207.876 16.75 207.876 15.95C207.876 14.25 206.926 13.4 205.026 13.4H202.251V18.475H205.026ZM217.461 16.3C217.911 15.5667 218.495 14.9917 219.211 14.575C219.945 14.1583 220.778 13.95 221.711 13.95V17.625H220.786C219.686 17.625 218.853 17.8833 218.286 18.4C217.736 18.9167 217.461 19.8167 217.461 21.1V28H213.961V14.15H217.461V16.3ZM230.219 28.225C228.885 28.225 227.685 27.9333 226.619 27.35C225.552 26.75 224.71 25.9083 224.094 24.825C223.494 23.7417 223.194 22.4917 223.194 21.075C223.194 19.6583 223.502 18.4083 224.119 17.325C224.752 16.2417 225.61 15.4083 226.694 14.825C227.777 14.225 228.985 13.925 230.319 13.925C231.652 13.925 232.86 14.225 233.944 14.825C235.027 15.4083 235.877 16.2417 236.494 17.325C237.127 18.4083 237.444 19.6583 237.444 21.075C237.444 22.4917 237.119 23.7417 236.469 24.825C235.835 25.9083 234.969 26.75 233.869 27.35C232.785 27.9333 231.569 28.225 230.219 28.225ZM230.219 25.175C230.852 25.175 231.444 25.025 231.994 24.725C232.56 24.4083 233.01 23.9417 233.344 23.325C233.677 22.7083 233.844 21.9583 233.844 21.075C233.844 19.7583 233.494 18.75 232.794 18.05C232.11 17.3333 231.269 16.975 230.269 16.975C229.269 16.975 228.427 17.3333 227.744 18.05C227.077 18.75 226.744 19.7583 226.744 21.075C226.744 22.3917 227.069 23.4083 227.719 24.125C228.385 24.825 229.219 25.175 230.219 25.175ZM244.086 17.025V23.725C244.086 24.1917 244.194 24.5333 244.411 24.75C244.644 24.95 245.028 25.05 245.561 25.05H247.186V28H244.986C242.036 28 240.561 26.5667 240.561 23.7V17.025H238.911V14.15H240.561V10.725H244.086V14.15H247.186V17.025H244.086ZM262.579 20.775C262.579 21.275 262.545 21.725 262.479 22.125H252.354C252.437 23.125 252.787 23.9083 253.404 24.475C254.02 25.0417 254.779 25.325 255.679 25.325C256.979 25.325 257.904 24.7667 258.454 23.65H262.229C261.829 24.9833 261.062 26.0833 259.929 26.95C258.795 27.8 257.404 28.225 255.754 28.225C254.42 28.225 253.22 27.9333 252.154 27.35C251.104 26.75 250.279 25.9083 249.679 24.825C249.095 23.7417 248.804 22.4917 248.804 21.075C248.804 19.6417 249.095 18.3833 249.679 17.3C250.262 16.2167 251.079 15.3833 252.129 14.8C253.179 14.2167 254.387 13.925 255.754 13.925C257.07 13.925 258.245 14.2083 259.279 14.775C260.329 15.3417 261.137 16.15 261.704 17.2C262.287 18.2333 262.579 19.425 262.579 20.775ZM258.954 19.775C258.937 18.875 258.612 18.1583 257.979 17.625C257.345 17.075 256.57 16.8 255.654 16.8C254.787 16.8 254.054 17.0667 253.454 17.6C252.87 18.1167 252.512 18.8417 252.379 19.775H258.954ZM264.233 21.075C264.233 19.6417 264.525 18.3917 265.108 17.325C265.692 16.2417 266.5 15.4083 267.533 14.825C268.567 14.225 269.75 13.925 271.083 13.925C272.8 13.925 274.217 14.3583 275.333 15.225C276.467 16.075 277.225 17.275 277.608 18.825H273.833C273.633 18.225 273.292 17.7583 272.808 17.425C272.342 17.075 271.758 16.9 271.058 16.9C270.058 16.9 269.267 17.2667 268.683 18C268.1 18.7167 267.808 19.7417 267.808 21.075C267.808 22.3917 268.1 23.4167 268.683 24.15C269.267 24.8667 270.058 25.225 271.058 25.225C272.475 25.225 273.4 24.5917 273.833 23.325H277.608C277.225 24.825 276.467 26.0167 275.333 26.9C274.2 27.7833 272.783 28.225 271.083 28.225C269.75 28.225 268.567 27.9333 267.533 27.35C266.5 26.75 265.692 25.9167 265.108 24.85C264.525 23.7667 264.233 22.5083 264.233 21.075ZM284.247 17.025V23.725C284.247 24.1917 284.356 24.5333 284.572 24.75C284.806 24.95 285.189 25.05 285.722 25.05H287.347V28H285.147C282.197 28 280.722 26.5667 280.722 23.7V17.025H279.072V14.15H280.722V10.725H284.247V14.15H287.347V17.025H284.247ZM291.64 12.5C291.023 12.5 290.506 12.3083 290.09 11.925C289.69 11.525 289.49 11.0333 289.49 10.45C289.49 9.86667 289.69 9.38333 290.09 9C290.506 8.6 291.023 8.4 291.64 8.4C292.256 8.4 292.765 8.6 293.165 9C293.581 9.38333 293.79 9.86667 293.79 10.45C293.79 11.0333 293.581 11.525 293.165 11.925C292.765 12.3083 292.256 12.5 291.64 12.5ZM293.365 14.15V28H289.865V14.15H293.365ZM302.973 28.225C301.639 28.225 300.439 27.9333 299.373 27.35C298.306 26.75 297.464 25.9083 296.848 24.825C296.248 23.7417 295.948 22.4917 295.948 21.075C295.948 19.6583 296.256 18.4083 296.873 17.325C297.506 16.2417 298.364 15.4083 299.448 14.825C300.531 14.225 301.739 13.925 303.073 13.925C304.406 13.925 305.614 14.225 306.698 14.825C307.781 15.4083 308.631 16.2417 309.248 17.325C309.881 18.4083 310.198 19.6583 310.198 21.075C310.198 22.4917 309.873 23.7417 309.223 24.825C308.589 25.9083 307.723 26.75 306.623 27.35C305.539 27.9333 304.323 28.225 302.973 28.225ZM302.973 25.175C303.606 25.175 304.198 25.025 304.748 24.725C305.314 24.4083 305.764 23.9417 306.098 23.325C306.431 22.7083 306.598 21.9583 306.598 21.075C306.598 19.7583 306.248 18.75 305.548 18.05C304.864 17.3333 304.023 16.975 303.023 16.975C302.023 16.975 301.181 17.3333 300.498 18.05C299.831 18.75 299.498 19.7583 299.498 21.075C299.498 22.3917 299.823 23.4083 300.473 24.125C301.139 24.825 301.973 25.175 302.973 25.175ZM320.44 13.95C322.09 13.95 323.423 14.475 324.44 15.525C325.457 16.5583 325.965 18.0083 325.965 19.875V28H322.465V20.35C322.465 19.25 322.19 18.4083 321.64 17.825C321.09 17.225 320.34 16.925 319.39 16.925C318.423 16.925 317.657 17.225 317.09 17.825C316.54 18.4083 316.265 19.25 316.265 20.35V28H312.765V14.15H316.265V15.875C316.732 15.275 317.323 14.8083 318.04 14.475C318.773 14.125 319.573 13.95 320.44 13.95Z" fill="#242424"/>
<path d="M77.84 62.14C76.5467 62.14 75.3533 61.84 74.26 61.24C73.18 60.6267 72.32 59.78 71.68 58.7C71.0533 57.6067 70.74 56.38 70.74 55.02C70.74 53.66 71.0533 52.44 71.68 51.36C72.32 50.28 73.18 49.44 74.26 48.84C75.3533 48.2267 76.5467 47.92 77.84 47.92C79.1467 47.92 80.34 48.2267 81.42 48.84C82.5133 49.44 83.3733 50.28 84 51.36C84.6267 52.44 84.94 53.66 84.94 55.02C84.94 56.38 84.6267 57.6067 84 58.7C83.3733 59.78 82.5133 60.6267 81.42 61.24C80.34 61.84 79.1467 62.14 77.84 62.14ZM77.84 60.16C78.76 60.16 79.58 59.9533 80.3 59.54C81.02 59.1133 81.58 58.5133 81.98 57.74C82.3933 56.9533 82.6 56.0467 82.6 55.02C82.6 53.9933 82.3933 53.0933 81.98 52.32C81.58 51.5467 81.02 50.9533 80.3 50.54C79.58 50.1267 78.76 49.92 77.84 49.92C76.92 49.92 76.1 50.1267 75.38 50.54C74.66 50.9533 74.0933 51.5467 73.68 52.32C73.28 53.0933 73.08 53.9933 73.08 55.02C73.08 56.0467 73.28 56.9533 73.68 57.74C74.0933 58.5133 74.66 59.1133 75.38 59.54C76.1 59.9533 76.92 60.16 77.84 60.16ZM91.4436 59.96L94.5636 50.98H96.9836L92.7836 62H90.0636L85.8836 50.98H88.3236L91.4436 59.96ZM108.807 56.22C108.807 56.6333 108.78 57.0067 108.727 57.34H100.307C100.374 58.22 100.7 58.9267 101.287 59.46C101.874 59.9933 102.594 60.26 103.447 60.26C104.674 60.26 105.54 59.7467 106.047 58.72H108.507C108.174 59.7333 107.567 60.5667 106.687 61.22C105.82 61.86 104.74 62.18 103.447 62.18C102.394 62.18 101.447 61.9467 100.607 61.48C99.7804 61 99.127 60.3333 98.647 59.48C98.1804 58.6133 97.947 57.6133 97.947 56.48C97.947 55.3467 98.1737 54.3533 98.627 53.5C99.0937 52.6333 99.7404 51.9667 100.567 51.5C101.407 51.0333 102.367 50.8 103.447 50.8C104.487 50.8 105.414 51.0267 106.227 51.48C107.04 51.9333 107.674 52.5733 108.127 53.4C108.58 54.2133 108.807 55.1533 108.807 56.22ZM106.427 55.5C106.414 54.66 106.114 53.9867 105.527 53.48C104.94 52.9733 104.214 52.72 103.347 52.72C102.56 52.72 101.887 52.9733 101.327 53.48C100.767 53.9733 100.434 54.6467 100.327 55.5H106.427ZM113.331 52.58C113.664 52.02 114.104 51.5867 114.651 51.28C115.211 50.96 115.871 50.8 116.631 50.8V53.16H116.051C115.157 53.16 114.477 53.3867 114.011 53.84C113.557 54.2933 113.331 55.08 113.331 56.2V62H111.051V50.98H113.331V52.58ZM124.882 58.9C126.162 57.7933 127.169 56.8867 127.902 56.18C128.649 55.46 129.269 54.7133 129.762 53.94C130.255 53.1667 130.502 52.3933 130.502 51.62C130.502 50.82 130.309 50.1933 129.922 49.74C129.549 49.2867 128.955 49.06 128.142 49.06C127.355 49.06 126.742 49.3133 126.302 49.82C125.875 50.3133 125.649 50.98 125.622 51.82H123.422C123.462 50.3 123.915 49.14 124.782 48.34C125.662 47.5267 126.775 47.12 128.122 47.12C129.575 47.12 130.709 47.52 131.522 48.32C132.349 49.12 132.762 50.1867 132.762 51.52C132.762 52.48 132.515 53.4067 132.022 54.3C131.542 55.18 130.962 55.9733 130.282 56.68C129.615 57.3733 128.762 58.18 127.722 59.1L126.822 59.9H133.162V61.8H123.442V60.14L124.882 58.9ZM150.58 50.98L143.82 67.18H141.46L143.7 61.82L139.36 50.98H141.9L145 59.38L148.22 50.98H150.58ZM162.401 56.22C162.401 56.6333 162.374 57.0067 162.321 57.34H153.901C153.967 58.22 154.294 58.9267 154.881 59.46C155.467 59.9933 156.187 60.26 157.041 60.26C158.267 60.26 159.134 59.7467 159.641 58.72H162.101C161.767 59.7333 161.161 60.5667 160.281 61.22C159.414 61.86 158.334 62.18 157.041 62.18C155.987 62.18 155.041 61.9467 154.201 61.48C153.374 61 152.721 60.3333 152.241 59.48C151.774 58.6133 151.541 57.6133 151.541 56.48C151.541 55.3467 151.767 54.3533 152.221 53.5C152.687 52.6333 153.334 51.9667 154.161 51.5C155.001 51.0333 155.961 50.8 157.041 50.8C158.081 50.8 159.007 51.0267 159.821 51.48C160.634 51.9333 161.267 52.5733 161.721 53.4C162.174 54.2133 162.401 55.1533 162.401 56.22ZM160.021 55.5C160.007 54.66 159.707 53.9867 159.121 53.48C158.534 52.9733 157.807 52.72 156.941 52.72C156.154 52.72 155.481 52.9733 154.921 53.48C154.361 53.9733 154.027 54.6467 153.921 55.5H160.021ZM163.885 56.44C163.885 55.3333 164.111 54.3533 164.565 53.5C165.031 52.6467 165.658 51.9867 166.445 51.52C167.245 51.04 168.125 50.8 169.085 50.8C169.951 50.8 170.705 50.9733 171.345 51.32C171.998 51.6533 172.518 52.0733 172.905 52.58V50.98H175.205V62H172.905V60.36C172.518 60.88 171.991 61.3133 171.325 61.66C170.658 62.0067 169.898 62.18 169.045 62.18C168.098 62.18 167.231 61.94 166.445 61.46C165.658 60.9667 165.031 60.2867 164.565 59.42C164.111 58.54 163.885 57.5467 163.885 56.44ZM172.905 56.48C172.905 55.72 172.745 55.06 172.425 54.5C172.118 53.94 171.711 53.5133 171.205 53.22C170.698 52.9267 170.151 52.78 169.565 52.78C168.978 52.78 168.431 52.9267 167.925 53.22C167.418 53.5 167.005 53.92 166.685 54.48C166.378 55.0267 166.225 55.68 166.225 56.44C166.225 57.2 166.378 57.8667 166.685 58.44C167.005 59.0133 167.418 59.4533 167.925 59.76C168.445 60.0533 168.991 60.2 169.565 60.2C170.151 60.2 170.698 60.0533 171.205 59.76C171.711 59.4667 172.118 59.04 172.425 58.48C172.745 57.9067 172.905 57.24 172.905 56.48ZM180.479 52.58C180.813 52.02 181.253 51.5867 181.799 51.28C182.359 50.96 183.019 50.8 183.779 50.8V53.16H183.199C182.306 53.16 181.626 53.3867 181.159 53.84C180.706 54.2933 180.479 55.08 180.479 56.2V62H178.199V50.98H180.479V52.58ZM189.875 62.18C189.008 62.18 188.228 62.0267 187.535 61.72C186.855 61.4 186.315 60.9733 185.915 60.44C185.515 59.8933 185.302 59.2867 185.275 58.62H187.635C187.675 59.0867 187.895 59.48 188.295 59.8C188.708 60.1067 189.222 60.26 189.835 60.26C190.475 60.26 190.968 60.14 191.315 59.9C191.675 59.6467 191.855 59.3267 191.855 58.94C191.855 58.5267 191.655 58.22 191.255 58.02C190.868 57.82 190.248 57.6 189.395 57.36C188.568 57.1333 187.895 56.9133 187.375 56.7C186.855 56.4867 186.402 56.16 186.015 55.72C185.642 55.28 185.455 54.7 185.455 53.98C185.455 53.3933 185.628 52.86 185.975 52.38C186.322 51.8867 186.815 51.5 187.455 51.22C188.108 50.94 188.855 50.8 189.695 50.8C190.948 50.8 191.955 51.12 192.715 51.76C193.488 52.3867 193.902 53.2467 193.955 54.34H191.675C191.635 53.8467 191.435 53.4533 191.075 53.16C190.715 52.8667 190.228 52.72 189.615 52.72C189.015 52.72 188.555 52.8333 188.235 53.06C187.915 53.2867 187.755 53.5867 187.755 53.96C187.755 54.2533 187.862 54.5 188.075 54.7C188.288 54.9 188.548 55.06 188.855 55.18C189.162 55.2867 189.615 55.4267 190.215 55.6C191.015 55.8133 191.668 56.0333 192.175 56.26C192.695 56.4733 193.142 56.7933 193.515 57.22C193.888 57.6467 194.082 58.2133 194.095 58.92C194.095 59.5467 193.922 60.1067 193.575 60.6C193.228 61.0933 192.735 61.48 192.095 61.76C191.468 62.04 190.728 62.18 189.875 62.18Z" fill="#898989"/>
<defs>
<clipPath id="clip0_13_1839">
<rect width="60" height="60" fill="white" transform="translate(0 5)"/>
</clipPath>
</defs>
</svg>
