<svg width="206" height="38" viewBox="0 0 206 38" fill="none" xmlns="http://www.w3.org/2000/svg">
<circle cx="19" cy="19" r="18.5" stroke="#007580"/>
<g clip-path="url(#clip0_1_565)">
<path d="M27 19C27 14.5817 23.4183 11 19 11C14.5817 11 11 14.5817 11 19C11 22.993 13.9253 26.3027 17.75 26.9027V21.3127H15.7187V19H17.75V17.2373C17.75 15.2327 18.9443 14.125 20.7717 14.125C21.6467 14.125 22.5623 14.2813 22.5623 14.2813V16.25H21.5537C20.56 16.25 20.25 16.8667 20.25 17.5V19H22.4687L22.114 21.3127H20.25V26.9027C24.0747 26.3027 27 22.9927 27 19Z" fill="#007580"/>
</g>
<g clip-path="url(#clip1_1_565)">
<path d="M58.0333 25.5001C64.07 25.5001 67.3723 20.4981 67.3723 16.1615C67.3723 16.0208 67.369 15.8771 67.3627 15.7365C68.0052 15.2718 68.5596 14.6962 69 14.0368C68.4017 14.3028 67.7667 14.4768 67.116 14.5521C67.8008 14.1417 68.3136 13.4968 68.5593 12.7371C67.915 13.119 67.2104 13.3884 66.4757 13.5338C65.9807 13.0076 65.3261 12.6591 64.6132 12.5423C63.9002 12.4255 63.1687 12.5468 62.5316 12.8875C61.8946 13.2282 61.3875 13.7694 61.0889 14.4272C60.7903 15.0851 60.7168 15.823 60.8797 16.5268C59.575 16.4613 58.2986 16.1224 57.1334 15.5321C55.9681 14.9417 54.9398 14.113 54.1153 13.0998C53.6963 13.8223 53.5681 14.6772 53.7567 15.4909C53.9454 16.3045 54.4368 17.0158 55.131 17.4801C54.6098 17.4636 54.0999 17.3233 53.6437 17.0708V17.1115C53.6432 17.8696 53.9053 18.6045 54.3855 19.1913C54.8656 19.7781 55.5341 20.1805 56.2773 20.3301C55.7946 20.4622 55.288 20.4815 54.7967 20.3865C55.0064 21.0385 55.4145 21.6087 55.964 22.0176C56.5135 22.4266 57.1769 22.6537 57.8617 22.6675C57.1805 23.2026 56.4005 23.5981 55.5662 23.8313C54.732 24.0644 53.8599 24.1306 53 24.0261C54.5019 24.9895 56.249 25.5012 58.0333 25.5001Z" fill="#636270"/>
</g>
<path d="M105.667 15.6667C105.667 15.4899 105.737 15.3203 105.862 15.1953C105.987 15.0702 106.156 15 106.333 15C106.51 15 106.68 15.0702 106.805 15.1953C106.93 15.3203 107 15.4899 107 15.6667C107 15.8435 106.93 16.013 106.805 16.1381C106.68 16.2631 106.51 16.3333 106.333 16.3333C106.156 16.3333 105.987 16.2631 105.862 16.1381C105.737 16.013 105.667 15.8435 105.667 15.6667Z" fill="#636270"/>
<path fill-rule="evenodd" clip-rule="evenodd" d="M103 15.8335C102.16 15.8335 101.355 16.1671 100.761 16.761C100.167 17.3549 99.8333 18.1603 99.8333 19.0002C99.8333 19.84 100.167 20.6455 100.761 21.2393C101.355 21.8332 102.16 22.1668 103 22.1668C103.84 22.1668 104.645 21.8332 105.239 21.2393C105.833 20.6455 106.167 19.84 106.167 19.0002C106.167 18.1603 105.833 17.3549 105.239 16.761C104.645 16.1671 103.84 15.8335 103 15.8335ZM100.833 19.0002C100.833 18.4255 101.062 17.8744 101.468 17.4681C101.874 17.0618 102.425 16.8335 103 16.8335C103.575 16.8335 104.126 17.0618 104.532 17.4681C104.938 17.8744 105.167 18.4255 105.167 19.0002C105.167 19.5748 104.938 20.1259 104.532 20.5322C104.126 20.9386 103.575 21.1668 103 21.1668C102.425 21.1668 101.874 20.9386 101.468 20.5322C101.062 20.1259 100.833 19.5748 100.833 19.0002Z" fill="#636270"/>
<path fill-rule="evenodd" clip-rule="evenodd" d="M106.505 12.8888C104.176 12.6305 101.824 12.6305 99.4946 12.8888C98.1533 13.0388 97.07 14.0954 96.9126 15.4434C96.6362 17.8065 96.6362 20.1937 96.9126 22.5568C97.07 23.9048 98.1526 24.9614 99.4946 25.1114C101.805 25.3694 104.195 25.3694 106.505 25.1114C107.847 24.9614 108.93 23.9048 109.087 22.5568C109.364 20.1937 109.364 17.8065 109.087 15.4434C108.93 14.0954 107.847 13.0388 106.505 12.8888ZM99.6053 13.8821C101.861 13.632 104.138 13.632 106.395 13.8821C107.281 13.9821 107.991 14.6814 108.095 15.5601C108.362 17.8456 108.362 20.1546 108.095 22.4401C107.991 23.3188 107.281 24.0188 106.395 24.1174C104.138 24.3675 101.861 24.3675 99.6053 24.1174C98.7186 24.0188 98.0086 23.3188 97.9053 22.4401C97.638 20.1546 97.638 17.8456 97.9053 15.5601C98.0086 14.6814 98.7186 13.9814 99.6053 13.8828V13.8821Z" fill="#636270"/>
<g clip-path="url(#clip2_1_565)">
<path d="M145 11C140.581 11 137 14.5813 137 19C137 22.3907 139.109 25.2843 142.084 26.45C142.016 25.8157 141.95 24.8467 142.113 24.1563C142.259 23.5313 143.05 20.1813 143.05 20.1813C143.05 20.1813 142.809 19.703 142.809 18.9937C142.809 17.8813 143.453 17.05 144.256 17.05C144.937 17.05 145.269 17.5627 145.269 18.178C145.269 18.8657 144.831 19.8907 144.606 20.8407C144.419 21.6373 145.006 22.2873 145.791 22.2873C147.212 22.2873 148.306 20.7873 148.306 18.625C148.306 16.7093 146.931 15.3687 144.966 15.3687C142.691 15.3687 141.353 17.075 141.353 18.8407C141.353 19.528 141.619 20.2657 141.95 20.6657C142.016 20.7437 142.025 20.8157 142.006 20.8937C141.947 21.147 141.81 21.6903 141.784 21.8C141.75 21.9467 141.669 21.978 141.516 21.9063C140.516 21.4407 139.891 19.9813 139.891 18.8063C139.891 16.2813 141.725 13.9657 145.175 13.9657C147.95 13.9657 150.106 15.9437 150.106 18.5873C150.106 21.344 148.369 23.5623 145.956 23.5623C145.147 23.5623 144.384 23.1407 144.122 22.6437C144.122 22.6437 143.722 24.172 143.625 24.547C143.444 25.2403 142.956 26.1127 142.631 26.6437C143.399 26.8804 144.197 27.0005 145 27C149.419 27 153 23.4187 153 19C153 14.5813 149.419 11 145 11Z" fill="#636270"/>
</g>
<path d="M194.841 15.7998C194.841 15.7998 194.684 14.6965 194.203 14.2125C193.594 13.5748 192.912 13.5718 192.6 13.5342C190.363 13.3718 187.003 13.3718 187.003 13.3718H186.997C186.997 13.3718 183.638 13.3718 181.4 13.5342C181.087 13.5718 180.406 13.5748 179.797 14.2125C179.316 14.6965 179.163 15.7998 179.163 15.7998C179.163 15.7998 179 17.0965 179 18.3905V19.6028C179 20.8968 179.159 22.1935 179.159 22.1935C179.159 22.1935 179.316 23.2968 179.794 23.7812C180.403 24.4185 181.203 24.3968 181.559 24.4655C182.841 24.5875 187 24.6248 187 24.6248C187 24.6248 190.362 24.6185 192.6 24.4592C192.913 24.4218 193.594 24.4185 194.203 23.7812C194.684 23.2968 194.841 22.1935 194.841 22.1935C194.841 22.1935 195 20.9002 195 19.6032V18.3908C195 17.0972 194.841 15.8002 194.841 15.8002V15.7998ZM185.347 21.0748V16.5782L189.668 18.8342L185.347 21.0748Z" fill="#636270"/>
<defs>
<clipPath id="clip0_1_565">
<rect width="16" height="16" fill="white" transform="translate(11 11)"/>
</clipPath>
<clipPath id="clip1_1_565">
<rect width="16" height="16" fill="white" transform="translate(53 11)"/>
</clipPath>
<clipPath id="clip2_1_565">
<rect width="16" height="16" fill="white" transform="translate(137 11)"/>
</clipPath>
</defs>
</svg>
